<svg width="32" height="32" viewBox="0 0 24 24" xmlns="http://www.w3.org/2000/svg">
                <circle cx="12" cy="12" r="3" fill="#64B5F6" stroke="#FFFFFF" stroke-width="1"/>
                <path d="M12,1L12,1c1.1,0,2,0.9,2,2v2c1.7,0.3,3.3,1,4.6,2l1.4-1.4c0.8-0.8,2-0.8,2.8,0l0,0c0.8,0.8,0.8,2,0,2.8L21.4,10
                         c1,1.3,1.7,2.9,2,4.6h2c1.1,0,2,0.9,2,2v0c0,1.1-0.9,2-2,2h-2c-0.3,1.7-1,3.3-2,4.6l1.4,1.4c0.8,0.8,0.8,2,0,2.8l0,0
                         c-0.8,0.8-2,0.8-2.8,0L18.6,21c-1.3,1-2.9,1.7-4.6,2v2c0,1.1-0.9,2-2,2h0c-1.1,0-2-0.9-2-2v-2c-1.7-0.3-3.3-1-4.6-2l-1.4,1.4
                         c-0.8,0.8-2,0.8-2.8,0l0,0c-0.8-0.8-0.8-2,0-2.8L2.6,19c-1-1.3-1.7-2.9-2-4.6H1c-1.1,0-2-0.9-2-2v0c0-1.1,0.9-2,2-2h2
                         c0.3-1.7,1-3.3,2-4.6L3.6,4.4c-0.8-0.8-0.8-2,0-2.8l0,0c0.8-0.8,2-0.8,2.8,0L7.8,3c1.3-1,2.9-1.7,4.6-2V1C12.6,0.4,12.3,1,12,1z"
                      fill="none" stroke="#64B5F6" stroke-width="1.5"/>
            </svg>